<svg xmlns="http://www.w3.org/2000/svg" viewBox="0 0 163.2 133.7"><g fill="none" stroke="#13E8FF" stroke-width="2" stroke-miterlimit="10"><path d="M154.9 132.7H8.7c-4 0-7.3-3.3-7.3-7.3v-28c0-4 3.3-7.3 7.3-7.3h146.2c4 0 7.3 3.3 7.3 7.3v28.1c0 4-3.3 7.2-7.3 7.2zm-20.8-42.6H29.5c-5.9 0-10.6-4.8-10.6-10.6V11.6C18.8 5.8 23.6 1 29.5 1h104.7c5.9 0 10.6 4.8 10.6 10.6v67.9c-.1 5.9-4.8 10.6-10.7 10.6z"/><path d="M122.4 78.5H41.2c-5.9 0-10.6-4.8-10.6-10.6V23.2c0-5.9 4.8-10.6 10.6-10.6h81.1c5.9 0 10.6 4.8 10.6 10.6v44.6c.1 5.9-4.7 10.7-10.5 10.7zm-17.5 11.6v42.6m-13.6-14.5H50.6m40.7-15.5H50.6m-33.4 0h16.3V119H17.2z"/><circle cx="125.1" cy="110.9" r="2.8"/><circle cx="139.6" cy="110.9" r="2.8"/><path d="M44.3 35.4l8.8-8.7M42.9 55.2l29.1-29"/></g></svg>