<svg xmlns="http://www.w3.org/2000/svg" viewBox="0 0 29.1 29.1"><path fill="#FFF" d="M25.7 0H3.5C1.6 0 0 1.5 0 3.5v22.2c0 1.9 1.6 3.5 3.5 3.5h22.2c1.9 0 3.5-1.5 3.5-3.5V3.5c-.1-2-1.6-3.5-3.5-3.5zm-3.8 3.6h2.7c.5 0 .9.4.9.9v2.7c0 .5-.4.9-.9.9h-2.7c-.5 0-.9-.4-.9-.9V4.6c-.1-.6.4-1 .9-1zM14.6 9c3.1 0 5.6 2.5 5.6 5.6 0 3.1-2.5 5.6-5.6 5.6-3.1 0-5.6-2.5-5.6-5.6C9 11.5 11.5 9 14.6 9zm10.9 17.4H3.6c-.5 0-.9-.4-.9-.9V11.8h3.6c-.5.7-.6 2-.6 2.8 0 4.9 4 8.8 8.9 8.8s8.9-4 8.9-8.8c0-.8-.1-2.1-.7-2.8h3.6v13.7c0 .5-.4.9-.9.9z"/></svg>