<?xml version="1.0" encoding="utf-8"?>
<!-- Generator: Adobe Illustrator 18.1.1, SVG Export Plug-In . SVG Version: 6.00 Build 0)  -->
<svg version="1.1" id="Layer_1" xmlns="http://www.w3.org/2000/svg" xmlns:xlink="http://www.w3.org/1999/xlink" x="0px" y="0px"
	 viewBox="0 0 163.2 133.7" enable-background="new 0 0 163.2 133.7" xml:space="preserve">
<g>
	<path fill="none" stroke="#13E8FF" stroke-width="2" stroke-miterlimit="10" d="M154.9,132.7H8.7c-4,0-7.3-3.3-7.3-7.3V97.4
		c0-4,3.3-7.3,7.3-7.3h146.2c4,0,7.3,3.3,7.3,7.3v28.1C162.2,129.5,158.9,132.7,154.9,132.7z"/>
	<path fill="none" stroke="#13E8FF" stroke-width="2" stroke-miterlimit="10" d="M134.1,90.1H29.5c-5.9,0-10.6-4.8-10.6-10.6V11.6
		C18.8,5.8,23.6,1,29.5,1h104.7c5.9,0,10.6,4.8,10.6,10.6v67.9C144.7,85.4,140,90.1,134.1,90.1z"/>
	<path fill="none" stroke="#13E8FF" stroke-width="2" stroke-miterlimit="10" d="M122.4,78.5H41.2c-5.9,0-10.6-4.8-10.6-10.6V23.2
		c0-5.9,4.8-10.6,10.6-10.6h81.1c5.9,0,10.6,4.8,10.6,10.6v44.6C133,73.7,128.2,78.5,122.4,78.5z"/>
	<line fill="none" stroke="#13E8FF" stroke-width="2" stroke-miterlimit="10" x1="104.9" y1="90.1" x2="104.9" y2="132.7"/>
	<line fill="none" stroke="#13E8FF" stroke-width="2" stroke-miterlimit="10" x1="91.3" y1="118.2" x2="50.6" y2="118.2"/>
	<line fill="none" stroke="#13E8FF" stroke-width="2" stroke-miterlimit="10" x1="91.3" y1="102.7" x2="50.6" y2="102.7"/>
	<rect x="17.2" y="102.7" fill="none" stroke="#13E8FF" stroke-width="2" stroke-miterlimit="10" width="16.3" height="16.3"/>
	<circle fill="none" stroke="#13E8FF" stroke-width="2" stroke-miterlimit="10" cx="125.1" cy="110.9" r="2.8"/>
	<circle fill="none" stroke="#13E8FF" stroke-width="2" stroke-miterlimit="10" cx="139.6" cy="110.9" r="2.8"/>
	<line fill="none" stroke="#13E8FF" stroke-width="2" stroke-miterlimit="10" x1="44.3" y1="35.4" x2="53.1" y2="26.7"/>
	<line fill="none" stroke="#13E8FF" stroke-width="2" stroke-miterlimit="10" x1="42.9" y1="55.2" x2="72" y2="26.2"/>
</g>
</svg>
