<?xml version="1.0" encoding="utf-8"?>
<!-- Generator: Adobe Illustrator 18.1.1, SVG Export Plug-In . SVG Version: 6.00 Build 0)  -->
<svg version="1.1" id="Layer_1" xmlns="http://www.w3.org/2000/svg" xmlns:xlink="http://www.w3.org/1999/xlink" x="0px" y="0px"
	 viewBox="0 0 29.1 20.5" enable-background="new 0 0 29.1 20.5" xml:space="preserve">
<path fill="#FFFFFF" d="M28.8,4.4c0,0-0.3-2-1.2-2.9c-1.1-1.2-2.3-1.2-2.9-1.2C20.7,0,14.6,0,14.6,0h0c0,0-6.1,0-10.2,0.3
	C3.8,0.4,2.6,0.4,1.4,1.5C0.6,2.4,0.3,4.4,0.3,4.4S0,6.8,0,9.1v2.2c0,2.4,0.3,4.7,0.3,4.7s0.3,2,1.2,2.9c1.1,1.2,2.6,1.1,3.2,1.2
	c2.3,0.2,9.9,0.3,9.9,0.3s6.1,0,10.2-0.3c0.6-0.1,1.8-0.1,2.9-1.2c0.9-0.9,1.2-2.9,1.2-2.9s0.3-2.4,0.3-4.7V9.1
	C29.1,6.8,28.8,4.4,28.8,4.4z M11.6,14l0-8.2l7.9,4.1L11.6,14z"/>
</svg>
