<?xml version="1.0" encoding="utf-8"?>
<!-- Generator: Adobe Illustrator 18.1.1, SVG Export Plug-In . SVG Version: 6.00 Build 0)  -->
<svg version="1.1" id="Layer_1" xmlns="http://www.w3.org/2000/svg" xmlns:xlink="http://www.w3.org/1999/xlink" x="0px" y="0px"
	 viewBox="0 0 28.5 28.5" enable-background="new 0 0 28.5 28.5" xml:space="preserve">
<g>
	<defs>
		<rect id="SVGID_3_" x="0" y="0" width="28.5" height="28.5"/>
	</defs>
	<clipPath id="SVGID_2_">
		<use xlink:href="#SVGID_3_"  overflow="visible"/>
	</clipPath>
	<path clip-path="url(#SVGID_2_)" fill="#FFFFFF" d="M14.3,0C6.4,0,0,6.4,0,14.3c0,6.3,4.1,11.6,9.8,13.5c0.7,0.1,1-0.3,1-0.7
		c0-0.3,0-1.5,0-2.7c-4,0.9-4.8-1.7-4.8-1.7c-0.6-1.6-1.6-2.1-1.6-2.1c-1.3-0.9,0.1-0.9,0.1-0.9c1.4,0.1,2.2,1.5,2.2,1.5
		c1.3,2.2,3.3,1.5,4.2,1.2c0.1-0.9,0.5-1.5,0.9-1.9c-3.2-0.4-6.5-1.6-6.5-7.1c0-1.6,0.6-2.8,1.5-3.8C6.5,9.3,6,7.9,6.8,5.9
		c0,0,1.2-0.4,3.9,1.5c1.1-0.3,2.4-0.5,3.6-0.5c1.2,0,2.4,0.2,3.6,0.5c2.7-1.8,3.9-1.5,3.9-1.5c0.8,2,0.3,3.4,0.1,3.8
		c0.9,1,1.5,2.3,1.5,3.8c0,5.5-3.3,6.7-6.5,7c0.5,0.4,1,1.3,1,2.6c0,1.9,0,3.4,0,3.9c0,0.4,0.3,0.8,1,0.7c5.7-1.9,9.7-7.2,9.7-13.5
		C28.5,6.4,22.1,0,14.3,0z"/>
</g>
</svg>
