<?xml version="1.0" encoding="utf-8"?>
<!-- Generator: Adobe Illustrator 18.1.1, SVG Export Plug-In . SVG Version: 6.00 Build 0)  -->
<svg version="1.1" id="Layer_1" xmlns="http://www.w3.org/2000/svg" xmlns:xlink="http://www.w3.org/1999/xlink" x="0px" y="0px"
	 viewBox="0 0 29.1 29.1" enable-background="new 0 0 29.1 29.1" xml:space="preserve">
<path id="White_4_" fill="#FFFFFF" d="M27.9,0H1.2C0.5,0,0,0.5,0,1.2v26.7c0,0.7,0.5,1.2,1.2,1.2h14.3V18.2h-3.6v-4.6h3.6V10
	c0-3.8,2.4-5.6,5.7-5.6c1.6,0,3,0.1,3.4,0.2v3.9l-2.3,0c-1.8,0-2.3,0.9-2.3,2.1v3h4.6l-0.9,4.6H20l0.1,10.9h7.8
	c0.7,0,1.2-0.5,1.2-1.2V1.2C29.1,0.5,28.6,0,27.9,0z"/>
</svg>
