<?xml version="1.0" encoding="utf-8"?>
<!-- Generator: Adobe Illustrator 18.1.1, SVG Export Plug-In . SVG Version: 6.00 Build 0)  -->
<svg version="1.1" id="Layer_1" xmlns="http://www.w3.org/2000/svg" xmlns:xlink="http://www.w3.org/1999/xlink" x="0px" y="0px"
	 viewBox="0 0 29.1 29.1" enable-background="new 0 0 29.1 29.1" xml:space="preserve">
<path fill="#FFFFFF" d="M27.9,0H1.2C0.5,0,0,0.5,0,1.2v26.7c0,0.7,0.5,1.2,1.2,1.2h26.7c0.7,0,1.2-0.5,1.2-1.2V1.2
	C29.1,0.5,28.6,0,27.9,0z M8.6,24.8H4.3V10.9h4.3V24.8z M6.5,9C5.1,9,4,7.9,4,6.5C4,5.1,5.1,4,6.5,4C7.9,4,9,5.1,9,6.5
	C9,7.9,7.9,9,6.5,9z M24.8,24.8h-4.3v-6.8c0-1.6,0-3.7-2.2-3.7c-2.2,0-2.6,1.8-2.6,3.6v6.9h-4.3V10.9h4.1v1.9h0.1
	c0.6-1.1,2-2.2,4.1-2.2c4.4,0,5.2,2.9,5.2,6.6V24.8z"/>
</svg>
