<?xml version="1.0" encoding="utf-8"?>
<!-- Generator: Adobe Illustrator 18.1.1, SVG Export Plug-In . SVG Version: 6.00 Build 0)  -->
<svg version="1.1" id="Layer_1" xmlns="http://www.w3.org/2000/svg" xmlns:xlink="http://www.w3.org/1999/xlink" x="0px" y="0px"
	 viewBox="0 0 29.1 23.7" enable-background="new 0 0 29.1 23.7" xml:space="preserve">
<path fill="#FFFFFF" d="M29.1,2.8c-1.1,0.5-2.2,0.8-3.4,0.9c1.2-0.7,2.2-1.9,2.6-3.3c-1.2,0.7-2.4,1.2-3.8,1.5
	C23.4,0.7,21.9,0,20.2,0c-3.3,0-6,2.7-6,6c0,0.5,0.1,0.9,0.2,1.4C9.4,7.1,5,4.7,2,1.1C1.5,2,1.2,3,1.2,4.1c0,2.1,1.1,3.9,2.7,5
	C2.9,9,2,8.8,1.2,8.3c0,0,0,0,0,0.1c0,2.9,2.1,5.3,4.8,5.9c-0.5,0.1-1,0.2-1.6,0.2c-0.4,0-0.8,0-1.1-0.1c0.8,2.4,3,4.1,5.6,4.2
	c-2,1.6-4.6,2.6-7.4,2.6c-0.5,0-1,0-1.4-0.1c2.6,1.7,5.8,2.7,9.2,2.7c11,0,17-9.1,17-17c0-0.3,0-0.5,0-0.8C27.3,5.1,28.3,4,29.1,2.8
	z"/>
</svg>
