<?xml version="1.0" encoding="utf-8"?>
<!-- Generator: Adobe Illustrator 18.1.1, SVG Export Plug-In . SVG Version: 6.00 Build 0)  -->
<svg version="1.1" id="Layer_1" xmlns="http://www.w3.org/2000/svg" xmlns:xlink="http://www.w3.org/1999/xlink" x="0px" y="0px"
	 viewBox="0 0 29.1 29.1" enable-background="new 0 0 29.1 29.1" xml:space="preserve">
<path fill="#FFFFFF" d="M25.7,0H3.5C1.6,0,0,1.5,0,3.5v22.2c0,1.9,1.6,3.5,3.5,3.5h22.2c1.9,0,3.5-1.5,3.5-3.5V3.5
	C29.1,1.5,27.6,0,25.7,0z M21.9,3.6h2.7c0.5,0,0.9,0.4,0.9,0.9v2.7c0,0.5-0.4,0.9-0.9,0.9h-2.7c-0.5,0-0.9-0.4-0.9-0.9V4.6
	C20.9,4,21.4,3.6,21.9,3.6z M14.6,9c3.1,0,5.6,2.5,5.6,5.6c0,3.1-2.5,5.6-5.6,5.6c-3.1,0-5.6-2.5-5.6-5.6C9,11.5,11.5,9,14.6,9z
	 M25.5,26.4H3.6c-0.5,0-0.9-0.4-0.9-0.9V11.8h3.6c-0.5,0.7-0.6,2-0.6,2.8c0,4.9,4,8.8,8.9,8.8c4.9,0,8.9-4,8.9-8.8
	c0-0.8-0.1-2.1-0.7-2.8h3.6v13.7C26.4,26,26,26.4,25.5,26.4z"/>
</svg>
