<svg xmlns="http://www.w3.org/2000/svg" xmlns:xlink="http://www.w3.org/1999/xlink" viewBox="0 0 28.5 28.5"><defs><path id="a" d="M0 0h28.5v28.5H0z"/></defs><clipPath id="b"><use xlink:href="#a" overflow="visible"/></clipPath><path clip-path="url(#b)" fill="#FFF" d="M14.3 0C6.4 0 0 6.4 0 14.3c0 6.3 4.1 11.6 9.8 13.5.7.1 1-.3 1-.7v-2.7c-4 .9-4.8-1.7-4.8-1.7-.6-1.6-1.6-2.1-1.6-2.1-1.3-.9.1-.9.1-.9 1.4.1 2.2 1.5 2.2 1.5 1.3 2.2 3.3 1.5 4.2 1.2.1-.9.5-1.5.9-1.9-3.2-.4-6.5-1.6-6.5-7.1 0-1.6.6-2.8 1.5-3.8-.3-.3-.8-1.7 0-3.7 0 0 1.2-.4 3.9 1.5 1.1-.3 2.4-.5 3.6-.5 1.2 0 2.4.2 3.6.5 2.7-1.8 3.9-1.5 3.9-1.5.8 2 .3 3.4.1 3.8.9 1 1.5 2.3 1.5 3.8 0 5.5-3.3 6.7-6.5 7 .5.4 1 1.3 1 2.6V27c0 .4.3.8 1 .7 5.7-1.9 9.7-7.2 9.7-13.5C28.5 6.4 22.1 0 14.3 0z"/></svg>